<svg xmlns="http://www.w3.org/2000/svg" width="66" height="66" viewBox="0 0 24 24" class="duoicon duoicon-app-dots" style="color: rgb(99, 102, 241);"><path fill="currentColor" d="M7 11.5c-3.464 0-5.63-3.75-3.897-6.75A4.5 4.5 0 0 1 7 2.5c3.464 0 5.63 3.75 3.897 6.75A4.5 4.5 0 0 1 7 11.5Z" class="duoicon-primary-layer"></path><path fill="currentColor" d="M17 21.5c-3.464 0-5.63-3.75-3.897-6.75A4.5 4.5 0 0 1 17 12.5c3.464 0 5.63 3.75 3.897 6.75A4.5 4.5 0 0 1 17 21.5Zm0-10c-3.464 0-5.63-3.75-3.897-6.75A4.5 4.5 0 0 1 17 2.5c3.464 0 5.63 3.75 3.897 6.75A4.5 4.5 0 0 1 17 11.5Zm-10 10c-3.464 0-5.63-3.75-3.897-6.75A4.5 4.5 0 0 1 7 12.5c3.464 0 5.63 3.75 3.897 6.75A4.5 4.5 0 0 1 7 21.5Z" class="duoicon-secondary-layer" opacity=".3"></path></svg>